<svg width="57" height="84" viewBox="0 0 57 84" fill="none" xmlns="http://www.w3.org/2000/svg">
<g clip-path="url(#clip0_9_77)">
<path d="M0.0119896 28.1854C0.311768 12.3119 13.3072 -0.296307 29.0456 0.00604723C44.3643 0.293284 56.7002 12.7503 56.985 28.1854C56.985 28.261 57 28.3366 57 28.3971V28.8355V80.795C57 82.5638 55.576 83.9849 53.8373 83.9849C52.0986 83.9849 50.6747 82.5487 50.6747 80.795V71.5128C50.6747 69.744 49.2507 68.3229 47.512 68.3229C45.7733 68.3229 44.3493 69.7591 44.3493 71.5128V75.912C44.3044 77.6808 42.8654 79.0716 41.1117 79.0414C39.418 79.0112 38.054 77.6203 38.009 75.912V71.5128C38.009 69.744 36.585 68.3229 34.8463 68.3229C33.0926 68.3229 31.6837 69.7591 31.6837 71.5128V72.7222C31.6837 74.491 30.2597 75.912 28.521 75.912C26.7823 75.912 25.3583 74.4758 25.3583 72.7222V71.5128C25.3133 69.744 23.8744 68.3532 22.1207 68.3834C20.4269 68.4136 19.063 69.8045 19.018 71.5128V75.912C19.018 77.6808 17.594 79.1019 15.8553 79.1019C14.1166 79.1019 12.6627 77.6959 12.6627 75.9271V71.5279C12.6627 69.7591 11.2387 68.3381 9.5 68.3381C7.74629 68.3381 6.33733 69.7742 6.33733 71.5279V80.8102C6.33733 82.5789 4.91338 84 3.17466 84C1.43594 84 0.0119896 82.5638 0.0119896 80.8102V28.4122C-0.00300217 28.3366 -0.00300217 28.261 0.0119896 28.1854ZM39.0133 32.7963C41.8162 32.7963 44.0795 30.181 44.0795 26.9307C44.0795 23.6804 41.8012 21.065 39.0133 21.065C36.2253 21.065 33.947 23.6804 33.947 26.9307C33.947 30.181 36.2103 32.7963 39.0133 32.7963ZM28.2812 41.0808C30.8293 41.0808 32.8828 39.554 32.8828 37.6642C32.8828 35.7745 30.8143 36.9235 28.2812 36.9235C25.748 36.9235 23.6796 35.7896 23.6796 37.6642C23.6796 39.5388 25.733 41.0657 28.2812 41.0808ZM17.9837 32.7963C20.7867 32.7963 23.05 30.181 23.05 26.9307C23.05 23.6804 20.7867 21.065 17.9837 21.065C15.1808 21.065 12.9175 23.6804 12.9175 26.9307C12.9175 30.181 15.1958 32.7963 17.9837 32.7963Z" fill="url(#paint0_linear_9_77)"/>
</g>
<defs>
<linearGradient id="paint0_linear_9_77" x1="59.0179" y1="80.2861" x2="-14.4473" y2="46.1271" gradientUnits="userSpaceOnUse">
<stop stop-color="#30BAC6"/>
<stop offset="1" stop-color="#B6509E"/>
</linearGradient>
<clipPath id="clip0_9_77">
<rect width="57" height="84" fill="white" transform="matrix(-1 0 0 1 57 0)"/>
</clipPath>
</defs>
</svg>
