<svg width="25" height="25" viewBox="0 0 25 25" fill="none" xmlns="http://www.w3.org/2000/svg">
<g clip-path="url(#clip0_9_213)">
<path d="M24.623 15.5228C22.9551 22.2201 16.1682 26.2973 9.4709 24.623C2.77995 22.955 -1.29725 16.1746 0.377087 9.47725C2.04503 2.77991 8.82545 -1.29729 15.5228 0.377046C22.2201 2.04499 26.2973 8.8318 24.623 15.5291V15.5228Z" fill="#F7931A"/>
<path d="M18.0087 10.717C18.2579 9.05547 16.9926 8.16079 15.2607 7.56007L15.8231 5.30419L14.4491 4.96549L13.8995 7.15746C13.5416 7.068 13.171 6.98492 12.8003 6.90184L13.3499 4.6907L11.976 4.35199L11.4136 6.60148C11.1132 6.53119 10.8193 6.46728 10.5381 6.39698L8.64645 5.91769L8.28219 7.38113C8.28219 7.38113 9.29829 7.6112 9.27912 7.63037C9.8351 7.77096 9.93735 8.13522 9.91818 8.42919L9.27912 10.9982C9.31747 11.011 9.36859 11.0238 9.41972 11.0429C9.37498 11.0302 9.32386 11.0174 9.27273 11.0046L8.37805 14.6025C8.30775 14.7687 8.13521 15.0243 7.75177 14.9284C7.76455 14.9476 6.75484 14.6792 6.75484 14.6792L6.07104 16.2513L7.85402 16.6986C8.18633 16.7817 8.51225 16.8712 8.83178 16.9479L8.26302 19.2293L9.6306 19.568L10.193 17.3121C10.57 17.4144 10.9279 17.5102 11.2858 17.5933L10.7234 19.8364L12.0974 20.1751L12.6661 17.9001C15.0051 18.341 16.7625 18.1621 17.5038 16.0468C18.0981 14.3405 17.4719 13.3627 16.2449 12.7173C17.1396 12.5128 17.817 11.9185 17.9959 10.7042L18.0087 10.717ZM14.8773 15.1138C14.4555 16.82 11.5861 15.8934 10.6531 15.6633L11.4072 12.647C12.3338 12.877 15.3182 13.3372 14.8773 15.1138ZM15.2991 10.6979C14.9092 12.2444 12.5255 11.4583 11.7523 11.2666L12.4361 8.52505C13.2093 8.71677 15.7017 9.08103 15.2991 10.6915V10.6979Z" fill="white"/>
</g>
<defs>
<clipPath id="clip0_9_213">
<rect width="25" height="25" fill="white"/>
</clipPath>
</defs>
</svg>
