<svg id="Layer_2" height="512" viewBox="0 0 512 512" width="512" xmlns="http://www.w3.org/2000/svg" data-name="Layer 2"><g id="Currency"><path id="Bitcoin" d="m310.15 295.55c.02 36.18-61.93 32.06-81.67 32.08v-64.14c19.76 0 81.67-5.67 81.67 32.06zm201.85-39.55c0 141.38-114.62 256-256 256s-256-114.62-256-256 114.62-256 256-256 256 114.61 256 256zm-186.07-14.95c16.89-8.6 27.45-23.76 24.98-49-3.32-34.51-33.1-46.07-70.71-49.37v-47.86s-29.13 0-29.13 0v46.6c-7.66 0-15.49.15-23.26.31v-46.91s-29.11 0-29.11 0v47.85c-6.32.13-12.51.25-18.55.25v-.15s-40.19-.01-40.19-.01v31.12s21.52-.41 21.16-.01c11.8 0 15.64 6.85 16.76 12.77v54.53c.82 0 1.88.04 3.08.2-.97 0-2.01 0-3.08 0v76.38c-.53 3.71-2.71 9.64-10.95 9.65.37.33-21.18 0-21.18 0l-5.79 34.79h37.91c7.06 0 14 .13 20.81.17v48.41s29.11 0 29.11 0v-47.9c7.99.17 15.72.23 23.27.22v47.68s29.12 0 29.12 0v-48.32c48.99-2.81 83.27-15.15 87.53-61.14 3.44-37.04-13.99-53.56-41.79-60.24zm-29.33-35.99c0-34.33-51.67-29.1-68.11-29.1v58.17c16.44 0 68.1 3.84 68.11-29.07z"/></g></svg>