<?xml version="1.0" encoding="utf-8"?>
<!-- Generator: Adobe Illustrator 27.3.1, SVG Export Plug-In . SVG Version: 6.00 Build 0)  -->
<svg version="1.1" id="ethereum" xmlns="http://www.w3.org/2000/svg" xmlns:xlink="http://www.w3.org/1999/xlink" x="0px" y="0px"
	 viewBox="0 0 512 512" style="enable-background:new 0 0 512 512;" xml:space="preserve">
<path d="M344.4,305c0-46.9-28.1-63-84.4-69.7c-40.2-5.4-48.2-16.1-48.2-34.8s13.4-30.8,40.2-30.8c24.1,0,37.5,8,44.2,28.1
	c1.3,4,5.4,6.7,9.4,6.7H327c5.4,0,9.4-4,9.4-9.4v-1.3c-5.4-29.5-29.5-52.2-60.3-54.9v-32.2c0-5.4-4-9.4-10.7-10.7h-20.1
	c-5.4,0-9.4,4-10.7,10.7v30.8c-40.2,5.4-65.6,32.2-65.6,65.6c0,44.2,26.8,61.6,83.1,68.3c37.5,6.7,49.6,14.7,49.6,36.2
	s-18.8,36.2-44.2,36.2c-34.8,0-46.9-14.7-50.9-34.8c-1.3-5.4-5.4-8-9.4-8h-22.8c-5.4,0-9.4,4-9.4,9.4v1.3
	c5.4,33.5,26.8,57.6,71,64.3v32.2c0,5.4,4,9.4,10.7,10.7h20.1c5.4,0,9.4-4,10.7-10.7V376C317.6,369.3,344.4,341.1,344.4,305
	L344.4,305z"/>
<path d="M187.7,445.6C83.2,408.1,29.6,291.6,68.5,188.4c20.1-56.3,64.3-99.1,119.2-119.2c5.4-2.7,8-6.7,8-13.4V37.1
	c0-5.4-2.7-9.4-8-10.7c-1.3,0-4,0-5.4,1.3C55.1,67.9-14.6,203.2,25.6,330.4c24.1,75,81.7,132.6,156.7,156.7c5.4,2.7,10.7,0,12.1-5.4
	c1.3-1.3,1.3-2.7,1.3-5.4v-18.8C195.7,453.7,191.7,448.3,187.7,445.6z M329.7,27.7c-5.4-2.7-10.7,0-12.1,5.4
	c-1.3,1.3-1.3,2.7-1.3,5.4v18.8c0,5.4,4,10.7,8,13.4c104.5,37.5,158.1,154.1,119.2,257.2C423.4,384,379.2,426.9,324.3,447
	c-5.4,2.7-8,6.7-8,13.4v18.8c0,5.4,2.7,9.4,8,10.7c1.3,0,4,0,5.4-1.3C456.9,448.3,526.6,313,486.4,185.7
	C462.3,109.4,403.4,51.8,329.7,27.7L329.7,27.7z"/>
</svg>
