<svg width="215" height="62" viewBox="0 0 215 62" fill="none" xmlns="http://www.w3.org/2000/svg">
<path d="M89.5 49C88.7133 49 88.1333 48.78 87.76 48.34C87.4 47.9 87.22 47.3333 87.22 46.64V40.04H83.78V38.68H86.34C86.6867 38.68 86.9267 38.6133 87.06 38.48C87.2067 38.3333 87.28 38.0867 87.28 37.74V35.04H88.82V38.68H93.52V40.04H88.82V47.64H93.52V49H89.5ZM96.5322 47.64H99.5522V40.04H96.5322V38.68H101.152V41.28H101.252C101.466 40.4667 101.866 39.8333 102.452 39.38C103.052 38.9133 103.812 38.68 104.732 38.68H106.172V40.28H104.232C103.312 40.28 102.566 40.5467 101.992 41.08C101.432 41.6133 101.152 42.3133 101.152 43.18V47.64H105.152V49H96.5322V47.64ZM113.164 49.24C112.418 49.24 111.744 49.1133 111.144 48.86C110.558 48.6067 110.051 48.2467 109.624 47.78C109.211 47.3 108.891 46.7333 108.664 46.08C108.438 45.4133 108.324 44.6733 108.324 43.86C108.324 43.0333 108.438 42.2867 108.664 41.62C108.904 40.9533 109.231 40.3867 109.644 39.92C110.058 39.44 110.551 39.0733 111.124 38.82C111.711 38.5667 112.358 38.44 113.064 38.44C113.758 38.44 114.384 38.5667 114.944 38.82C115.518 39.0733 116.004 39.4267 116.404 39.88C116.804 40.32 117.111 40.8467 117.324 41.46C117.538 42.0733 117.644 42.7467 117.644 43.48V44.24H110.004V44.72C110.004 45.1733 110.078 45.5933 110.224 45.98C110.371 46.3667 110.578 46.7 110.844 46.98C111.124 47.26 111.458 47.48 111.844 47.64C112.244 47.7867 112.684 47.86 113.164 47.86C113.858 47.86 114.458 47.7 114.964 47.38C115.471 47.06 115.858 46.62 116.124 46.06L117.304 46.86C116.998 47.5533 116.484 48.1267 115.764 48.58C115.058 49.02 114.191 49.24 113.164 49.24ZM113.064 39.76C112.624 39.76 112.218 39.84 111.844 40C111.471 40.16 111.144 40.38 110.864 40.66C110.598 40.94 110.384 41.2733 110.224 41.66C110.078 42.0333 110.004 42.4467 110.004 42.9V43.04H115.924V42.82C115.924 42.3667 115.851 41.9533 115.704 41.58C115.571 41.2067 115.378 40.8867 115.124 40.62C114.884 40.34 114.584 40.1267 114.224 39.98C113.878 39.8333 113.491 39.76 113.064 39.76ZM128.877 49C128.25 49 127.803 48.84 127.537 48.52C127.27 48.2 127.103 47.8 127.037 47.32H126.937C126.71 47.92 126.343 48.3933 125.837 48.74C125.343 49.0733 124.677 49.24 123.837 49.24C122.757 49.24 121.897 48.96 121.257 48.4C120.617 47.84 120.297 47.0733 120.297 46.1C120.297 45.14 120.643 44.4 121.337 43.88C122.043 43.36 123.177 43.1 124.737 43.1H126.937V42.08C126.937 41.32 126.723 40.7533 126.297 40.38C125.87 39.9933 125.263 39.8 124.477 39.8C123.783 39.8 123.217 39.94 122.777 40.22C122.337 40.4867 121.983 40.8533 121.717 41.32L120.637 40.52C120.77 40.2533 120.95 39.9933 121.177 39.74C121.403 39.4867 121.683 39.2667 122.017 39.08C122.35 38.88 122.73 38.7267 123.157 38.62C123.583 38.5 124.057 38.44 124.577 38.44C125.79 38.44 126.75 38.7467 127.457 39.36C128.177 39.9733 128.537 40.8267 128.537 41.92V47.6H129.977V49H128.877ZM124.117 47.9C124.53 47.9 124.903 47.8533 125.237 47.76C125.583 47.6533 125.883 47.52 126.137 47.36C126.39 47.1867 126.583 46.9867 126.717 46.76C126.863 46.52 126.937 46.2667 126.937 46V44.3H124.737C123.777 44.3 123.077 44.4333 122.637 44.7C122.197 44.9667 121.977 45.3533 121.977 45.86V46.28C121.977 46.8133 122.163 47.22 122.537 47.5C122.923 47.7667 123.45 47.9 124.117 47.9ZM137.089 49.24C136.009 49.24 135.075 49.06 134.289 48.7C133.515 48.3267 132.855 47.8333 132.309 47.22L133.389 46.28C133.882 46.8 134.422 47.2 135.009 47.48C135.595 47.76 136.302 47.9 137.129 47.9C137.929 47.9 138.582 47.76 139.089 47.48C139.609 47.1867 139.869 46.7333 139.869 46.12C139.869 45.8533 139.815 45.6333 139.709 45.46C139.615 45.2733 139.482 45.1267 139.309 45.02C139.135 44.9133 138.942 44.8333 138.729 44.78C138.515 44.7133 138.289 44.66 138.049 44.62L136.429 44.38C136.069 44.3267 135.675 44.2533 135.249 44.16C134.835 44.0667 134.455 43.92 134.109 43.72C133.762 43.5067 133.469 43.2267 133.229 42.88C133.002 42.5333 132.889 42.08 132.889 41.52C132.889 41 132.989 40.5533 133.189 40.18C133.402 39.7933 133.695 39.4733 134.069 39.22C134.442 38.9533 134.882 38.76 135.389 38.64C135.895 38.5067 136.449 38.44 137.049 38.44C137.982 38.44 138.789 38.5867 139.469 38.88C140.162 39.1733 140.755 39.58 141.249 40.1L140.209 41.08C140.089 40.9333 139.935 40.7867 139.749 40.64C139.575 40.48 139.355 40.34 139.089 40.22C138.835 40.0867 138.535 39.98 138.189 39.9C137.842 39.82 137.442 39.78 136.989 39.78C136.175 39.78 135.549 39.92 135.109 40.2C134.682 40.48 134.469 40.8867 134.469 41.42C134.469 41.6867 134.515 41.9133 134.609 42.1C134.715 42.2733 134.855 42.4133 135.029 42.52C135.202 42.6267 135.395 42.7133 135.609 42.78C135.835 42.8333 136.062 42.88 136.289 42.92L137.909 43.16C138.282 43.2133 138.675 43.2867 139.089 43.38C139.502 43.4733 139.882 43.6267 140.229 43.84C140.575 44.04 140.862 44.3133 141.089 44.66C141.329 45.0067 141.449 45.46 141.449 46.02C141.449 47.0467 141.049 47.84 140.249 48.4C139.462 48.96 138.409 49.24 137.089 49.24ZM151.401 47.32H151.321C151.214 47.5733 151.081 47.82 150.921 48.06C150.761 48.2867 150.561 48.4867 150.321 48.66C150.094 48.8333 149.821 48.9733 149.501 49.08C149.181 49.1867 148.808 49.24 148.381 49.24C147.301 49.24 146.434 48.9 145.781 48.22C145.128 47.5267 144.801 46.5533 144.801 45.3V38.68H146.401V45.02C146.401 45.9667 146.608 46.6733 147.021 47.14C147.434 47.5933 148.041 47.82 148.841 47.82C149.161 47.82 149.474 47.78 149.781 47.7C150.088 47.62 150.361 47.5 150.601 47.34C150.841 47.18 151.034 46.98 151.181 46.74C151.328 46.4867 151.401 46.1867 151.401 45.84V38.68H153.001V49H151.401V47.32ZM156.493 47.64H159.513V40.04H156.493V38.68H161.113V41.28H161.213C161.426 40.4667 161.826 39.8333 162.413 39.38C163.013 38.9133 163.773 38.68 164.693 38.68H166.133V40.28H164.193C163.273 40.28 162.526 40.5467 161.953 41.08C161.393 41.6133 161.113 42.3133 161.113 43.18V47.64H165.113V49H156.493V47.64ZM176.285 38.68H177.885L172.765 51.26C172.645 51.5533 172.512 51.8067 172.365 52.02C172.219 52.2467 172.045 52.4267 171.845 52.56C171.645 52.7067 171.405 52.8133 171.125 52.88C170.845 52.96 170.512 53 170.125 53H168.605V51.64H171.005L172.165 48.8L168.005 38.68H169.645L171.385 43L172.925 46.92H173.005L174.545 43L176.285 38.68ZM180.838 35.04H184.738C186.444 35.04 187.718 35.6267 188.558 36.8C189.398 37.9733 189.818 39.7133 189.818 42.02C189.818 44.3267 189.398 46.0667 188.558 47.24C187.718 48.4133 186.444 49 184.738 49H180.838V35.04ZM184.658 47.54C185.778 47.54 186.618 47.1533 187.178 46.38C187.751 45.6067 188.038 44.5133 188.038 43.1V40.94C188.038 39.5267 187.751 38.4333 187.178 37.66C186.618 36.8867 185.778 36.5 184.658 36.5H182.518V47.54H184.658ZM200.55 49L199.37 45.02H194.47L193.29 49H191.55L195.83 35.04H198.05L202.33 49H200.55ZM197.01 36.82H196.83L194.87 43.56H198.97L197.01 36.82ZM208.922 49.24C208.069 49.24 207.335 49.08 206.722 48.76C206.109 48.4267 205.602 47.9533 205.202 47.34C204.802 46.7267 204.509 45.9733 204.322 45.08C204.135 44.1867 204.042 43.1667 204.042 42.02C204.042 40.8867 204.135 39.8733 204.322 38.98C204.509 38.0733 204.802 37.3133 205.202 36.7C205.602 36.0867 206.109 35.62 206.722 35.3C207.335 34.9667 208.069 34.8 208.922 34.8C209.775 34.8 210.509 34.9667 211.122 35.3C211.735 35.62 212.242 36.0867 212.642 36.7C213.042 37.3133 213.335 38.0733 213.522 38.98C213.709 39.8733 213.802 40.8867 213.802 42.02C213.802 43.1667 213.709 44.1867 213.522 45.08C213.335 45.9733 213.042 46.7267 212.642 47.34C212.242 47.9533 211.735 48.4267 211.122 48.76C210.509 49.08 209.775 49.24 208.922 49.24ZM208.922 47.78C209.482 47.78 209.955 47.6733 210.342 47.46C210.729 47.2333 211.049 46.92 211.302 46.52C211.555 46.12 211.735 45.64 211.842 45.08C211.962 44.5067 212.022 43.8667 212.022 43.16V40.88C212.022 40.1867 211.962 39.5533 211.842 38.98C211.735 38.4067 211.555 37.92 211.302 37.52C211.049 37.12 210.729 36.8133 210.342 36.6C209.955 36.3733 209.482 36.26 208.922 36.26C208.362 36.26 207.889 36.3733 207.502 36.6C207.115 36.8133 206.795 37.12 206.542 37.52C206.289 37.92 206.102 38.4067 205.982 38.98C205.875 39.5533 205.822 40.1867 205.822 40.88V43.16C205.822 43.8667 205.875 44.5067 205.982 45.08C206.102 45.64 206.289 46.12 206.542 46.52C206.795 46.92 207.115 47.2333 207.502 47.46C207.889 47.6733 208.362 47.78 208.922 47.78Z" fill="#F5F1EE"/>
<g clip-path="url(#clip0_14_2)">
<path d="M62.6499 20.7241C61.3211 19.315 59.73 18.431 58.0461 18.1156C57.9224 18.0346 57.7824 17.9782 57.6174 17.9782H24.0385C24.0311 17.9782 24.0134 17.971 24.0061 17.971H23.956C21.0685 17.971 18.3961 19.6072 16.6223 22.476V22.4919C16.556 22.6062 16.5059 22.735 16.5059 22.8811C16.5059 22.9057 16.5133 22.9216 16.5221 22.9462C16.5221 22.9708 16.5295 22.9867 16.5295 23.0026C16.5545 23.156 16.612 23.2949 16.7107 23.399C16.7181 23.4063 16.7181 23.4236 16.7269 23.4236L28.7144 36.1517H17.3221C16.8683 36.159 16.5059 36.5163 16.5059 36.9619V61.1927C16.5059 61.6297 16.8683 61.9942 17.3221 61.9942H48.8783C48.8857 61.9942 48.8945 62.0015 48.9034 62.0015H63.2083C63.6532 62.0015 64.0244 61.6456 64.0244 61.2V37.2845C67.1182 32.2283 66.5068 24.824 62.647 20.7255L62.6499 20.7241ZM23.9751 19.5725C23.9825 19.5725 23.9913 19.5797 24.0002 19.5797H51.9927C51.0926 20.2365 50.2852 21.0785 49.6002 22.0912H18.9102C20.3127 20.4709 22.1351 19.5812 23.9751 19.5725ZM19.1724 23.6811H30.0713C32.0601 27.1894 32.1839 31.9693 30.3924 35.5991L19.1724 23.6811ZM30.3497 46.4725C29.1785 47.0237 28.246 47.9554 27.7009 49.1214C27.1558 47.9554 26.2247 47.0237 25.052 46.4725C26.2232 45.9213 27.1646 44.9896 27.7009 43.8236C28.2371 44.9896 29.177 45.9213 30.3497 46.4725ZM26.8037 52.2536C26.8037 52.1291 26.8081 52.0062 26.814 51.8832L26.9009 52.2261C26.9923 52.582 27.3134 52.8337 27.6935 52.8337C28.0736 52.8337 28.3948 52.5834 28.4861 52.2261L28.9398 50.451C29.3023 49.0491 30.416 47.9713 31.8524 47.64L33.5436 47.2508C33.9149 47.1698 34.1712 46.8458 34.1712 46.4725C34.1712 46.2743 34.0976 46.0935 33.9738 45.9532C37.2002 46.3033 39.7179 48.9941 39.7179 52.2536V60.3884H26.8052V52.2536H26.8037ZM48.0887 60.3884H41.4843V52.2536C41.4843 47.8006 37.7953 44.178 33.2608 44.178C32.2855 44.178 31.3397 44.3444 30.4381 44.6699C29.7089 44.1491 29.1711 43.3896 28.9398 42.4955L28.4861 40.7204C28.3948 40.3645 28.0736 40.1128 27.6935 40.1128C27.3134 40.1128 26.9923 40.3631 26.9009 40.7204L26.4472 42.4955C26.0848 43.8974 24.971 44.9752 23.5346 45.3065L21.8434 45.6956C21.4721 45.7767 21.2158 46.1007 21.2158 46.474C21.2158 46.8472 21.4795 47.1713 21.8434 47.2523L23.5346 47.6415C24.423 47.8469 25.1861 48.3373 25.7268 49.0144C25.2686 50.0372 25.0344 51.1251 25.0344 52.2564V60.3913H18.1323V37.7561H35.6636L37.1236 38.0889C38.4185 38.3883 39.4247 39.3605 39.7473 40.6249L40.1687 42.2539C40.26 42.6098 40.5812 42.8615 40.9613 42.8615C41.3414 42.8615 41.6625 42.6113 41.7539 42.2539L42.1752 40.6249C42.4964 39.3533 43.504 38.3811 44.799 38.0889L46.259 37.7561H48.0902V60.3913L48.0887 60.3884ZM38.6763 36.959C39.6752 36.4657 40.4751 35.6627 40.9613 34.6746C41.4474 35.6642 42.2562 36.457 43.2462 36.959C42.2474 37.4523 41.4474 38.2552 40.9613 39.2433C40.4663 38.2552 39.6663 37.4523 38.6763 36.959ZM48.8975 36.1575H46.2575L44.7975 35.8248C43.5026 35.5253 42.4964 34.5531 42.1737 33.2887L41.7524 31.6597C41.5712 30.9465 40.3587 30.9465 40.1761 31.6597L39.7547 33.2887C39.4336 34.5603 38.4259 35.5325 37.1309 35.8248L35.671 36.1575H31.901C33.716 32.3498 33.7086 27.4975 31.8936 23.6811H49.6798L61.436 36.1575H48.896H48.8975ZM58.7165 60.3971H53.4011V53.9766C53.4011 52.5371 54.5929 51.3667 56.0588 51.3667C57.5246 51.3667 58.7165 52.5371 58.7165 53.9766V60.3971ZM60.4814 60.3971V53.9766C60.4814 51.5808 58.4969 49.6336 56.0588 49.6336C53.6206 49.6336 51.6347 51.5823 51.6347 53.9766V60.3971H49.7225V37.7532H62.3951V60.3971H60.4828H60.4814ZM63.1199 35.5976L51.0587 22.7972C52.3787 20.9252 54.1524 19.7909 56.1074 19.6058C58.0373 19.4119 59.9348 20.1975 61.4537 21.8091C64.6461 25.1958 65.3061 31.1736 63.1199 35.5976Z" fill="white"/>
<path d="M16.8226 31.8478C16.8226 31.476 16.5589 31.1505 16.195 31.0694L13.9263 30.5501C11.8962 30.0799 10.3125 28.5565 9.80863 26.5716L9.19872 24.1889C9.01752 23.4757 7.80506 23.4757 7.62238 24.1889L7.01247 26.5716C6.50127 28.5565 4.92493 30.0871 2.89484 30.5501L0.626089 31.0694C0.256312 31.1505 -2.75149e-05 31.476 -2.75149e-05 31.8478C-0.00739359 32.2196 0.247472 32.5436 0.618722 32.6261L2.88747 33.1455C4.91756 33.6156 6.50127 35.139 7.00511 37.1239L7.61502 39.5052C7.70636 39.8611 8.02752 40.1128 8.40761 40.1128C8.7877 40.1128 9.10886 39.8625 9.2002 39.5052L9.8101 37.1239C10.3213 35.139 11.8976 33.6156 13.9277 33.1455L16.1965 32.6261C16.5677 32.5451 16.8241 32.221 16.8241 31.8478H16.8226ZM8.40761 36.1416C7.70636 34.1408 6.13886 32.5769 4.12645 31.8478C6.13886 31.1186 7.70636 29.5475 8.40761 27.5539C9.10886 29.5547 10.6764 31.1186 12.6888 31.8478C10.6764 32.5769 9.10886 34.148 8.40761 36.1416Z" fill="white"/>
<path d="M19.9061 9.0419L22.1748 9.56127C24.2049 10.0314 25.7886 11.5548 26.2925 13.5397L26.9024 15.921C26.9937 16.2769 27.3149 16.5286 27.695 16.5286C28.0751 16.5286 28.3962 16.2783 28.4876 15.921L29.0975 13.5397C29.6087 11.5548 31.185 10.0242 33.2151 9.56127L35.4839 9.0419C35.8551 8.96089 36.1114 8.63682 36.1114 8.26357C36.1114 7.89032 35.8566 7.56626 35.4839 7.48525L33.2151 6.96588C31.185 6.4957 29.6013 4.97232 29.0975 2.98744L28.4876 0.604717C28.3962 0.248827 28.0751 -0.00289917 27.695 -0.00289917C27.3149 -0.00289917 26.9937 0.247381 26.9024 0.604717L26.2925 2.98744C25.7813 4.97232 24.2049 6.4957 22.1748 6.96588L19.9061 7.48525C19.5348 7.56626 19.2785 7.89032 19.2785 8.26357C19.2785 8.63682 19.5422 8.96089 19.9061 9.0419ZM27.6935 3.96252C28.3948 5.96331 29.9623 7.5272 31.9747 8.25634C29.9623 8.98548 28.4021 10.5566 27.6935 12.5502C26.9923 10.5494 25.4248 8.98548 23.4123 8.25634C25.4174 7.53588 26.9849 5.96331 27.6935 3.96252Z" fill="white"/>
<path d="M33.3624 49.3876C32.066 49.3876 31.0097 50.4235 31.0097 51.698C31.0097 52.6644 31.6181 53.4934 32.4785 53.8377V55.3307C32.4785 55.8096 32.8748 56.1987 33.3624 56.1987C33.8501 56.1987 34.2464 55.8096 34.2464 55.3307V53.8377C35.1067 53.4934 35.7151 52.6659 35.7151 51.698C35.7151 50.4249 34.6603 49.3876 33.3624 49.3876ZM33.3624 51.1237C33.6851 51.1237 33.9473 51.3812 33.9473 51.698C33.9473 52.0149 33.6851 52.2724 33.3624 52.2724C33.0398 52.2724 32.7776 52.0149 32.7776 51.698C32.7776 51.3812 33.0398 51.1237 33.3624 51.1237Z" fill="white"/>
</g>
<defs>
<clipPath id="clip0_14_2">
<rect width="66" height="62" fill="white"/>
</clipPath>
</defs>
</svg>
