<svg width="22" height="19" viewBox="0 0 22 19" fill="none" xmlns="http://www.w3.org/2000/svg">
<g clip-path="url(#clip0_1_50)">
<path d="M16.658 5.68957C16.2559 5.46862 15.7389 5.46862 15.2794 5.68957L12.0627 7.51244L9.8799 8.67245L6.72063 10.4953C6.31854 10.7163 5.80157 10.7163 5.34204 10.4953L2.87206 9.05912C2.46997 8.83817 2.18277 8.39626 2.18277 7.89911V5.13718C2.18277 4.69528 2.41253 4.25337 2.87206 3.97717L5.34204 2.59621C5.74413 2.37526 6.2611 2.37526 6.72063 2.59621L9.1906 4.03241C9.59269 4.25337 9.8799 4.69528 9.8799 5.19242V7.01529L12.0627 5.80005V3.92194C12.0627 3.48003 11.8329 3.03812 11.3734 2.76193L6.77807 0.165716C6.37598 -0.0552385 5.85901 -0.0552385 5.39948 0.165716L0.689295 2.81717C0.229765 3.03812 0 3.48003 0 3.92194V9.11436C0 9.55627 0.229765 9.99817 0.689295 10.2744L5.34204 12.8706C5.74413 13.0915 6.2611 13.0915 6.72063 12.8706L9.8799 11.1029L12.0627 9.8877L15.2219 8.12006C15.624 7.89911 16.141 7.89911 16.6005 8.12006L19.0705 9.50103C19.4726 9.72198 19.7598 10.1639 19.7598 10.661V13.423C19.7598 13.8649 19.53 14.3068 19.0705 14.583L16.658 15.9639C16.2559 16.1849 15.7389 16.1849 15.2794 15.9639L12.8094 14.583C12.4073 14.362 12.1201 13.9201 12.1201 13.423V11.6553L9.93734 12.8706V14.6934C9.93734 15.1354 10.1671 15.5773 10.6266 15.8535L15.2794 18.4497C15.6815 18.6706 16.1984 18.6706 16.658 18.4497L21.3107 15.8535C21.7128 15.6325 22 15.1906 22 14.6934V9.44579C22 9.00388 21.7702 8.56197 21.3107 8.28578L16.658 5.68957Z" fill="#8247E5"/>
</g>
<defs>
<clipPath id="clip0_1_50">
<rect width="22" height="18.6154" fill="white"/>
</clipPath>
</defs>
</svg>
