<svg width="94" height="108" viewBox="0 0 94 108" fill="none" xmlns="http://www.w3.org/2000/svg">
<g clip-path="url(#clip0_9_67)">
<path d="M36.8832 24.582C35.7138 24.4001 35.6682 24.3799 36.215 24.2941C37.2679 24.1324 39.7534 24.3547 41.4695 24.7587C45.4737 25.7083 49.1134 28.1377 53.0012 32.4561L54.0339 33.6026L55.5121 33.3652C61.7335 32.3651 68.0663 33.1581 73.3614 35.6027C74.8193 36.2744 77.1125 37.6129 77.401 37.9563C77.4921 38.0674 77.6592 38.7695 77.7756 39.522C78.1705 42.1232 77.9731 44.1182 77.1732 45.6082C76.7379 46.4163 76.7176 46.6739 77.0062 47.3709C77.239 47.9265 77.887 48.3356 78.5299 48.3305C79.8461 48.3305 81.2635 46.2042 81.9165 43.2545L82.1747 42.0828L82.691 42.6687C85.5259 45.8708 87.7482 50.2347 88.1278 53.3459L88.2291 54.1591L87.7532 53.4217C86.9332 52.1539 86.1131 51.2903 85.0551 50.5933C83.1567 49.3407 81.1471 48.9114 75.8216 48.6336C71.0176 48.3811 68.2941 47.9719 65.596 47.0931C61.0046 45.5981 58.6962 43.6132 53.2442 36.4765C50.8245 33.3046 49.3261 31.552 47.8378 30.1428C44.4562 26.9356 41.1304 25.2487 36.8781 24.5921L36.8832 24.582Z" fill="#FF007A"/>
<path d="M78.4843 31.658C78.6058 29.5317 78.8944 28.1326 79.4765 26.8548C79.7043 26.3497 79.922 25.9356 79.9574 25.9356C79.9929 25.9356 79.8916 26.3093 79.7347 26.7639C79.3145 28.0064 79.2437 29.7034 79.5322 31.6782C79.9017 34.1834 80.1093 34.5471 82.7669 37.2543C84.0122 38.522 85.46 40.1281 85.9865 40.815L86.9433 42.0676L85.9865 41.1736C84.8171 40.0827 82.1342 37.9513 81.5368 37.6432C81.1369 37.4411 81.0812 37.4411 80.8332 37.6836C80.6054 37.9058 80.5598 38.2442 80.5295 39.8402C80.4788 42.3252 80.1397 43.9212 79.3196 45.5173C78.8741 46.381 78.8083 46.1941 79.2082 45.2243C79.5069 44.497 79.5373 44.1788 79.5373 41.7696C79.5373 36.9361 78.9551 35.7693 75.5837 33.7794C74.7282 33.2743 73.3209 32.547 72.4552 32.1631C71.5896 31.7793 70.9011 31.4409 70.9265 31.4156C71.0226 31.3196 74.3131 32.2793 75.6394 32.7894C77.6086 33.547 77.9325 33.643 78.1755 33.5521C78.3375 33.4915 78.4135 33.0268 78.4894 31.653L78.4843 31.658Z" fill="#FF007A"/>
<path d="M39.1561 39.9312C36.787 36.6734 35.3189 31.6782 35.6328 27.9458L35.729 26.7891L36.2706 26.8851C37.2831 27.072 39.0295 27.7185 39.8496 28.2134C42.0972 29.5721 43.0692 31.3651 44.0563 35.9663C44.3448 37.3149 44.7245 38.8402 44.9017 39.3554C45.1852 40.1887 46.2482 42.1282 47.1139 43.3859C47.7365 44.295 47.3214 44.7243 45.9445 44.598C43.8386 44.4061 40.9937 42.4464 39.151 39.9211L39.1561 39.9312Z" fill="#FF007A"/>
<path d="M75.609 64.1697C64.5278 59.72 60.6249 55.8511 60.6249 49.3356C60.6249 48.376 60.6553 47.5931 60.6957 47.5931C60.7362 47.5931 61.1665 47.9113 61.6474 48.2952C63.8951 50.0933 66.411 50.861 73.3766 51.8762C77.4769 52.4721 79.7802 52.957 81.9114 53.6591C88.6745 55.8966 92.861 60.4372 93.8582 66.6243C94.1468 68.4224 93.9797 71.7912 93.5089 73.5691C93.1394 74.9732 92.0055 77.5036 91.7068 77.5996C91.6258 77.6248 91.5397 77.3067 91.5195 76.8773C91.4031 74.554 90.2286 72.2913 88.2544 70.5993C86.0067 68.6749 82.9897 67.1395 75.609 64.1747V64.1697Z" fill="#FF007A"/>
<path d="M67.8285 66.0182C67.6867 65.195 67.4488 64.1394 67.2919 63.6797L67.0084 62.8363L67.5349 63.4272C68.2638 64.2404 68.8358 65.2808 69.3218 66.6698C69.6914 67.7304 69.7369 68.0436 69.7319 69.7659C69.7319 71.4528 69.6812 71.8064 69.3421 72.761C68.8004 74.2661 68.1271 75.3268 67.0033 76.4733C64.9784 78.5289 62.3765 79.6653 58.6203 80.1401C57.9673 80.2209 56.0639 80.3573 54.3934 80.4482C50.1766 80.6654 47.4025 81.12 44.9119 81.9937C44.5525 82.12 44.2336 82.1958 44.2032 82.1655C44.1019 82.0644 45.7978 81.0543 47.2 80.3825C49.1743 79.433 51.1435 78.9128 55.5526 78.1804C57.7294 77.8168 59.9821 77.3774 60.549 77.2056C65.9403 75.554 68.7144 71.2963 67.8285 66.0283V66.0182Z" fill="#FF007A"/>
<path d="M72.9058 75.0237C71.4327 71.867 71.0935 68.8163 71.9034 65.9728C71.9895 65.6697 72.1262 65.4222 72.2122 65.4222C72.2983 65.4222 72.6425 65.6091 72.9817 65.8415C73.66 66.296 75.0218 67.0637 78.6463 69.0386C83.1719 71.4983 85.7486 73.4075 87.5051 75.5843C89.039 77.4885 89.9907 79.6603 90.4513 82.3119C90.7095 83.812 90.5577 87.4182 90.1729 88.9334C88.958 93.6963 86.1282 97.4389 82.0987 99.6208C81.5064 99.939 80.98 100.202 80.9192 100.202C80.8635 100.202 81.0762 99.6562 81.3951 98.9895C82.7517 96.1611 82.9036 93.4084 81.881 90.3477C81.2533 88.4738 79.9726 86.1858 77.3858 82.317C74.3789 77.8218 73.6448 76.6248 72.9058 75.0389V75.0237Z" fill="#FF007A"/>
<path d="M31.2844 92.0599C35.3949 88.5951 40.5128 86.1353 45.1751 85.3777C47.1848 85.0494 50.5309 85.1807 52.3887 85.6555C55.3704 86.4182 58.0382 88.1203 59.4252 90.1557C60.7819 92.1407 61.364 93.8731 61.9664 97.7217C62.2044 99.242 62.4676 100.767 62.5435 101.111C62.9991 103.106 63.885 104.702 64.9784 105.5C66.7198 106.773 69.7167 106.853 72.6679 105.702C73.1691 105.505 73.6044 105.374 73.6348 105.404C73.7411 105.51 72.2579 106.505 71.21 107.025C69.7977 107.727 68.6789 108 67.1906 108C64.4874 108 62.2449 106.631 60.3718 103.833C60.0023 103.283 59.1772 101.636 58.5292 100.171C56.5549 95.6762 55.5779 94.3024 53.2848 92.8023C51.2903 91.4992 48.7136 91.2618 46.7748 92.2114C44.2285 93.4539 43.5198 96.7015 45.3422 98.7571C46.0661 99.5754 47.4177 100.277 48.5212 100.419C50.5866 100.676 52.3634 99.1056 52.3634 97.0247C52.3634 95.6711 51.842 94.9034 50.5309 94.3125C48.7389 93.5044 46.8153 94.4489 46.8254 96.1257C46.8254 96.8429 47.1392 97.2924 47.8631 97.6157C48.3238 97.8228 48.3339 97.8379 47.9593 97.7621C46.3192 97.4237 45.9294 95.4439 47.2506 94.1357C48.8351 92.5599 52.1154 93.2569 53.2392 95.4035C53.71 96.3075 53.7657 98.1056 53.3556 99.1915C52.4343 101.621 49.7412 102.899 47.0127 102.207C45.1549 101.732 44.3955 101.222 42.153 98.9188C38.2601 94.9135 36.7466 94.1408 31.1326 93.267L30.0543 93.1003L31.2794 92.07L31.2844 92.0599Z" fill="#FF007A"/>
<path fill-rule="evenodd" clip-rule="evenodd" d="M1.91335 2.39405C14.9181 18.1423 34.9746 42.6687 35.9668 44.0374C36.7868 45.1688 36.4781 46.189 35.0708 46.987C34.2861 47.4315 32.6763 47.881 31.8714 47.881C30.9603 47.881 29.9326 47.4416 29.1834 46.7345C28.657 46.2345 26.5207 43.0576 21.5952 35.4309C17.8289 29.5973 14.6701 24.7537 14.584 24.6729C14.4524 24.5483 16.6612 28.5468 21.2105 36.6684C25.4931 44.3152 26.9409 47.0173 26.9409 47.3759C26.9409 48.1134 26.7384 48.4972 25.8322 49.5074C24.3186 51.1943 23.6403 53.0883 23.1493 57.0128C22.6026 61.412 21.0586 64.5182 16.7861 69.8315C14.2854 72.9428 13.8753 73.5135 13.2476 74.7661C12.4528 76.347 12.2352 77.2309 12.1441 79.2259C12.0529 81.3371 12.2352 82.6958 12.8781 84.711C13.445 86.4737 14.0323 87.6405 15.5408 89.9739C16.8418 91.9841 17.591 93.4791 17.591 94.065C17.591 94.5297 17.6821 94.5297 19.6969 94.0751C24.5262 92.9892 28.4443 91.075 30.6464 88.7314C32.0132 87.2818 32.3321 86.4788 32.3422 84.4888C32.3473 83.1908 32.3017 82.918 31.9524 82.1655C31.3804 80.9482 30.3325 79.933 28.0343 78.3673C25.0172 76.3116 23.7314 74.655 23.3771 72.3771C23.0835 70.5083 23.4226 69.1901 25.0932 65.7C26.8194 62.0888 27.2497 60.5483 27.5382 56.9117C27.7255 54.5632 27.9837 53.6338 28.662 52.8863C29.3707 52.1085 30.0035 51.8459 31.75 51.6085C34.6 51.2196 36.4122 50.4822 37.9056 49.1134C39.2015 47.9265 39.7432 46.78 39.8242 45.0526L39.8849 43.7445L39.161 42.901C36.5489 39.8756 0.161826 0 -0.000164428 0C-0.0355998 0 0.824974 1.07581 1.91335 2.39405ZM19.0641 81.62C19.6564 80.5745 19.3425 79.231 18.3503 78.5744C17.4138 77.9531 15.961 78.2461 15.961 79.0542C15.961 79.3017 16.0976 79.4785 16.4064 79.6401C16.9278 79.9078 16.9633 80.2058 16.5532 80.8169C16.1381 81.4381 16.1736 81.9836 16.6494 82.3523C17.4138 82.9483 18.4971 82.62 19.0641 81.62Z" fill="#FF007A"/>
<path fill-rule="evenodd" clip-rule="evenodd" d="M41.6872 52.3105C40.3508 52.7196 39.0498 54.1338 38.6448 55.6188C38.3968 56.5228 38.5385 58.1088 38.9081 58.5987C39.5003 59.3917 40.0774 59.5987 41.6315 59.5886C44.679 59.5684 47.3265 58.2653 47.6353 56.634C47.8884 55.2955 46.7241 53.4469 45.1245 52.6338C44.2993 52.2146 42.5377 52.0479 41.6872 52.3105ZM45.2459 55.0884C45.7167 54.4217 45.5092 53.7045 44.7094 53.2146C43.1907 52.2903 40.8874 53.053 40.8874 54.4874C40.8874 55.1995 42.0871 55.9824 43.1856 55.9824C43.9196 55.9824 44.9169 55.5481 45.2409 55.0884H45.2459Z" fill="#FF007A"/>
</g>
<defs>
<clipPath id="clip0_9_67">
<rect width="94" height="108" fill="white"/>
</clipPath>
</defs>
</svg>
