<?xml version="1.0" encoding="utf-8"?>
<!-- Generator: Adobe Illustrator 27.3.1, SVG Export Plug-In . SVG Version: 6.00 Build 0)  -->
<svg version="1.1" id="ethereum" xmlns="http://www.w3.org/2000/svg" xmlns:xlink="http://www.w3.org/1999/xlink" x="0px" y="0px"
	 viewBox="0 0 512 512" style="enable-background:new 0 0 512 512;" xml:space="preserve">
<style type="text/css">
	.st0{fill-rule:evenodd;clip-rule:evenodd;}
</style>
<path d="M205.8,129.1c-5-0.7-5.3-1-2.9-1.2c4.6-0.7,15.1,0.2,22.6,1.9c17.3,4.1,32.9,14.6,49.5,33.1l4.3,5l6.2-1
	c26.6-4.3,54-1,76.8,9.6c6.2,2.9,16.1,8.6,17.3,10.1c0.5,0.5,1.2,3.6,1.7,6.7c1.7,11.3,1,19.7-2.6,26.2c-1.9,3.6-1.9,4.6-0.7,7.7
	c1,2.4,3.8,4.1,6.5,4.1c5.8,0,11.8-9.1,14.6-21.8l1.2-5l2.2,2.4c12.2,13.7,21.8,32.6,23.3,46.1l0.5,3.6l-2.2-3.1
	c-3.6-5.5-7-9.1-11.5-12.2c-8.2-5.5-16.8-7.2-39.6-8.4c-20.6-1.2-32.4-2.9-43.9-6.7c-19.7-6.5-29.8-14.9-53.1-45.9
	c-10.3-13.7-16.8-21.1-23.3-27.4C238.5,139.2,224.3,132,205.8,129.1z"/>
<path d="M384.7,159.6c0.5-9.1,1.7-15.1,4.3-20.6c1-2.2,1.9-4.1,2.2-4.1c0.2,0-0.2,1.7-1,3.6c-1.9,5.3-2.2,12.7-1,21.1
	c1.7,10.8,2.4,12.2,13.9,24c5.3,5.5,11.5,12.5,13.9,15.4l4.1,5.3l-4.1-3.8c-5-4.8-16.6-13.9-19.2-15.1c-1.7-1-1.9-1-3.1,0.2
	c-1,1-1.2,2.4-1.2,9.4c-0.2,10.8-1.7,17.5-5.3,24.5c-1.9,3.6-2.2,2.9-0.5-1.2c1.2-3.1,1.4-4.6,1.4-14.9c0-20.9-2.4-25.9-17-34.3
	c-3.6-2.2-9.8-5.3-13.4-7c-3.8-1.7-6.7-3.1-6.5-3.1c0.5-0.5,14.6,3.6,20.2,6c8.4,3.4,9.8,3.6,10.8,3.4
	C383.9,167.5,384.4,165.6,384.7,159.6z"/>
<path d="M215.7,195.4c-10.1-13.9-16.6-35.5-15.1-51.6l0.5-5l2.4,0.5c4.3,0.7,11.8,3.6,15.4,5.8c9.6,5.8,13.9,13.7,18,33.4
	c1.2,5.8,2.9,12.5,3.6,14.6c1.2,3.6,5.8,12,9.6,17.3c2.6,3.8,1,5.8-5,5.3C235.8,214.6,223.6,206.2,215.7,195.4z"/>
<path d="M372.4,299.8c-47.5-19.2-64.3-35.8-64.3-63.9c0-4.1,0.2-7.4,0.2-7.4c0.2,0,1.9,1.4,4.1,3.1c9.6,7.7,20.4,11,50.4,15.4
	c17.5,2.6,27.6,4.6,36.7,7.7c29,9.6,47.1,29.3,51.4,55.9c1.2,7.7,0.5,22.3-1.4,30c-1.7,6-6.5,17-7.7,17.3c-0.2,0-0.7-1.2-0.7-3.1
	c-0.5-10.1-5.5-19.7-13.9-27.1C417.1,319,404.1,312.5,372.4,299.8z"/>
<path d="M338.8,307.7c-0.5-3.6-1.7-8.2-2.4-10.1l-1.2-3.6l2.2,2.6c3.1,3.6,5.5,7.9,7.7,13.9c1.7,4.6,1.7,6,1.7,13.4
	c0,7.2-0.2,8.9-1.7,13c-2.4,6.5-5.3,11-10.1,16.1c-8.6,8.9-19.9,13.7-36,15.8c-2.9,0.2-11,1-18.2,1.4c-18,1-30,2.9-40.8,6.7
	c-1.4,0.5-2.9,1-3.1,0.7c-0.5-0.5,7-4.8,13-7.7c8.4-4.1,17-6.2,36-9.6c9.4-1.4,19-3.4,21.4-4.3C330.9,348.8,342.7,330.3,338.8,307.7
	z"/>
<path d="M360.7,346.4c-6.2-13.7-7.7-26.6-4.3-38.9c0.5-1.2,1-2.4,1.4-2.4c0.5,0,1.9,0.7,3.4,1.7c2.9,1.9,8.9,5.3,24.2,13.7
	c19.4,10.6,30.5,18.7,38.2,28.1c6.7,8.2,10.8,17.5,12.7,29c1.2,6.5,0.5,22.1-1.2,28.6c-5.3,20.4-17.3,36.7-34.8,46.1
	c-2.6,1.4-4.8,2.4-5,2.4s0.7-2.4,2.2-5.3c5.8-12.2,6.5-24,2.2-37.2c-2.6-8.2-8.2-18-19.2-34.6C367.1,358.4,364,353.3,360.7,346.4z"
	/>
<path d="M181.8,419.8c17.8-14.9,39.6-25.4,59.8-28.8c8.6-1.4,23-1,31,1.2c12.7,3.4,24.2,10.6,30.2,19.4c5.8,8.6,8.4,16.1,11,32.6
	c1,6.5,2.2,13.2,2.4,14.6c1.9,8.6,5.8,15.4,10.6,19c7.4,5.5,20.4,5.8,33.1,1c2.2-0.7,4.1-1.4,4.1-1.2c0.5,0.5-6,4.8-10.3,7
	c-6,3.1-10.8,4.1-17.3,4.1c-11.5,0-21.4-6-29.3-18c-1.7-2.4-5-9.4-7.9-15.8c-8.4-19.4-12.7-25.2-22.6-31.7
	c-8.6-5.5-19.7-6.7-28.1-2.6c-11,5.3-13.9,19.4-6.2,28.1c3.1,3.6,8.9,6.5,13.7,7.2c8.9,1.2,16.6-5.8,16.6-14.6
	c0-5.8-2.2-9.1-7.9-11.8c-7.7-3.4-16.1,0.5-15.8,7.9c0,3.1,1.4,5,4.6,6.5c1.9,1,1.9,1,0.5,0.7c-7-1.4-8.6-10.1-3.1-15.6
	c6.7-6.7,20.9-3.8,25.7,5.5c1.9,3.8,2.2,11.5,0.5,16.3c-4.1,10.6-15.6,16.1-27.4,13c-7.9-2.2-11.3-4.3-20.9-14.2
	c-16.8-17.3-23.3-20.6-47.3-24.2l-4.6-0.7L181.8,419.8z"/>
<path class="st0" d="M55.5,33.6c55.9,67.9,142.1,173.6,146.4,179.3c3.6,4.8,2.2,9.4-3.8,12.7c-3.4,1.9-10.3,3.8-13.7,3.8
	c-3.8,0-8.4-1.9-11.5-5c-2.2-2.2-11.5-15.8-32.6-48.7c-16.1-25.2-29.8-46.1-30-46.3c-1-0.5-1-0.5,28.3,51.9
	c18.5,32.9,24.5,44.7,24.5,46.1c0,3.1-1,4.8-4.8,9.1c-6.5,7.2-9.4,15.4-11.5,32.4c-2.4,19-8.9,32.4-27.4,55.2
	c-10.8,13.4-12.5,15.8-15.1,21.4c-3.4,6.7-4.3,10.6-4.8,19.2c-0.5,9.1,0.5,14.9,3.1,23.5c2.4,7.7,5,12.7,11.5,22.6
	c5.5,8.6,8.9,15.1,8.9,17.5c0,1.9,0.5,1.9,9.1,0c20.6-4.8,37.7-13,47.1-23c5.8-6.2,7.2-9.6,7.2-18.2c0-5.5-0.2-6.7-1.7-10.1
	c-2.4-5.3-7-9.6-16.8-16.3c-13-8.9-18.5-16.1-19.9-25.7c-1.2-8.2,0.2-13.7,7.4-28.8c7.4-15.6,9.4-22.1,10.6-37.9
	c0.7-10.1,1.9-14.2,4.8-17.3c3.1-3.4,5.8-4.6,13.2-5.5c12.2-1.7,20.2-4.8,26.4-10.8c5.5-5,7.9-10.1,8.2-17.5l0.2-5.5l-3.1-3.4
	C204.4,195.1,48.1,23.3,47.4,23.3C47.1,23.3,51,27.8,55.5,33.6z M129.2,375c2.6-4.6,1.2-10.3-3.1-13.2c-4.1-2.6-10.3-1.4-10.3,2.2
	c0,1,0.5,1.9,1.9,2.4c2.2,1.2,2.4,2.4,0.7,5c-1.7,2.6-1.7,5,0.5,6.7C122.3,380.7,126.8,379.3,129.2,375z"/>
<path class="st0" d="M226.5,248.7c-5.8,1.7-11.3,7.9-13,14.2c-1,3.8-0.5,10.8,1.2,13c2.6,3.4,5,4.3,11.8,4.3
	c13.2,0,24.5-5.8,25.7-12.7c1.2-5.8-3.8-13.7-10.8-17.3C237.7,248.2,230.3,247.5,226.5,248.7z M241.8,260.7c1.9-2.9,1.2-6-2.4-8.2
	c-6.5-4.1-16.3-0.7-16.3,5.5c0,3.1,5,6.5,9.8,6.5C236.1,264.5,240.4,262.6,241.8,260.7z"/>
</svg>
